<svg xmlns="http://www.w3.org/2000/svg" width="13.447" height="15.485" viewBox="0 0 13.447 15.485">
  <path id="Icon_awesome-calendar-alt" data-name="Icon awesome-calendar-alt" d="M0,14.033a1.447,1.447,0,0,0,1.441,1.452H12.006a1.447,1.447,0,0,0,1.441-1.452V5.807H0ZM9.6,8.105a.363.363,0,0,1,.36-.363h1.2a.363.363,0,0,1,.36.363v1.21a.363.363,0,0,1-.36.363h-1.2a.363.363,0,0,1-.36-.363Zm0,3.871a.363.363,0,0,1,.36-.363h1.2a.363.363,0,0,1,.36.363v1.21a.363.363,0,0,1-.36.363h-1.2a.363.363,0,0,1-.36-.363ZM5.763,8.105a.363.363,0,0,1,.36-.363h1.2a.363.363,0,0,1,.36.363v1.21a.363.363,0,0,1-.36.363h-1.2a.363.363,0,0,1-.36-.363Zm0,3.871a.363.363,0,0,1,.36-.363h1.2a.363.363,0,0,1,.36.363v1.21a.363.363,0,0,1-.36.363h-1.2a.363.363,0,0,1-.36-.363ZM1.921,8.105a.363.363,0,0,1,.36-.363h1.2a.363.363,0,0,1,.36.363v1.21a.363.363,0,0,1-.36.363h-1.2a.363.363,0,0,1-.36-.363Zm0,3.871a.363.363,0,0,1,.36-.363h1.2a.363.363,0,0,1,.36.363v1.21a.363.363,0,0,1-.36.363h-1.2a.363.363,0,0,1-.36-.363ZM12.006,1.936H10.565V.484A.483.483,0,0,0,10.085,0h-.96a.483.483,0,0,0-.48.484V1.936H4.8V.484A.483.483,0,0,0,4.322,0h-.96a.483.483,0,0,0-.48.484V1.936H1.441A1.447,1.447,0,0,0,0,3.387V4.839H13.447V3.387A1.447,1.447,0,0,0,12.006,1.936Z" fill="#52435b"/>
</svg>
